<svg width="213" height="81" viewBox="0 0 213 81" fill="none" xmlns="http://www.w3.org/2000/svg">
<path d="M0 40.5575C0 21.6034 14.1966 5.56095 33.0669 3.77975C87.4098 -1.34976 127.258 -1.1731 179.858 3.79146C198.765 5.57594 213 21.6425 213 40.6334C213 59.6808 198.681 75.7753 179.71 77.4766C126.871 82.2151 87.0597 82.1558 33.3749 77.4094C14.3739 75.7295 0 59.6327 0 40.5575Z" fill="#C8EBED"/>
<path d="M73.5498 27C74.0032 27 74.2298 28.1867 74.2298 30.56C74.2298 32.9067 74.0032 34.08 73.5498 34.08H66.2298V38.64H71.1098C71.5632 38.64 71.7898 39.68 71.7898 41.76C71.7898 43.8133 71.5765 44.84 71.1498 44.84H66.2298V54.48C66.2298 54.8533 65.7232 55.0933 64.7098 55.2C63.7232 55.3333 62.8965 55.4 62.2298 55.4L60.3498 55.32C59.0432 55.16 58.3898 54.8933 58.3898 54.52V28.04C58.3898 27.6133 58.4698 27.3333 58.6298 27.2C58.8165 27.0667 59.0832 27 59.4298 27H73.5498ZM84.577 54.76C84.577 54.9733 83.3504 55.08 80.897 55.08C78.4704 55.08 77.257 54.9867 77.257 54.8V35.16C77.257 34.9733 78.4704 34.88 80.897 34.88C83.3504 34.88 84.577 34.96 84.577 35.12V54.76ZM84.577 32.76C84.577 32.9467 83.3504 33.04 80.897 33.04C78.4704 33.04 77.257 32.96 77.257 32.8V27.04C77.257 26.7733 78.4704 26.64 80.897 26.64C83.3504 26.64 84.577 26.72 84.577 26.88V32.76ZM96.5545 54.76C96.5545 54.9467 95.5945 55.04 93.6745 55.04C91.0079 54.96 89.6745 54.8133 89.6745 54.6V41.64H88.6345C87.9412 41.64 87.4879 41.0533 87.2745 39.88C87.2212 39.5333 87.1945 39.1867 87.1945 38.84C87.1945 38.0133 87.3545 37.1867 87.6745 36.36C88.1545 35.1867 88.9012 34.6 89.9145 34.6C90.9279 34.6 91.8345 34.84 92.6345 35.32C93.4345 35.8 93.9679 36.28 94.2345 36.76C95.9145 35.32 97.9145 34.6 100.235 34.6C102.555 34.6 104.235 35.2267 105.275 36.48C106.315 37.7333 106.835 39.7867 106.835 42.64V54.64C106.835 54.96 105.688 55.12 103.395 55.12C101.128 55.12 99.9945 54.96 99.9945 54.64V43.08C99.9945 41.7467 99.5279 41.08 98.5945 41.08C98.3279 41.08 97.9545 41.2 97.4745 41.44C96.9945 41.6533 96.6879 41.8133 96.5545 41.92V54.76ZM117.546 54.76C117.546 54.9733 116.319 55.08 113.866 55.08C111.439 55.08 110.226 54.9867 110.226 54.8V35.16C110.226 34.9733 111.439 34.88 113.866 34.88C116.319 34.88 117.546 34.96 117.546 35.12V54.76ZM117.546 32.76C117.546 32.9467 116.319 33.04 113.866 33.04C111.439 33.04 110.226 32.96 110.226 32.8V27.04C110.226 26.7733 111.439 26.64 113.866 26.64C116.319 26.64 117.546 26.72 117.546 26.88V32.76ZM122.003 47.8C124.163 49.1067 125.87 49.76 127.123 49.76C127.923 49.76 128.323 49.48 128.323 48.92C128.323 48.52 127.63 48 126.243 47.36C122.91 46 121.243 43.7733 121.243 40.68C121.243 38.7067 121.963 37.2 123.403 36.16C124.843 35.12 126.563 34.6 128.563 34.6C130.59 34.6 132.297 34.8133 133.683 35.24C135.097 35.6667 135.803 36.2267 135.803 36.92C135.803 37.5067 135.51 38.28 134.923 39.24C134.363 40.2 133.977 40.72 133.763 40.8C132.617 40.16 131.377 39.84 130.043 39.84C129.323 39.84 128.963 40.0933 128.963 40.6C128.963 40.92 129.097 41.2 129.363 41.44C129.657 41.6533 130.177 41.9333 130.923 42.28C131.67 42.6 132.283 42.8933 132.763 43.16C133.27 43.4267 133.83 43.8 134.443 44.28C135.723 45.2933 136.363 46.6133 136.363 48.24C136.363 50.3733 135.657 52.1067 134.243 53.44C132.83 54.7467 130.697 55.4 127.843 55.4C125.95 55.4 124.23 55.08 122.683 54.44C121.137 53.8 120.363 52.92 120.363 51.8C120.363 51.0533 120.537 50.2667 120.883 49.44C121.257 48.6133 121.63 48.0667 122.003 47.8ZM145.851 54.72C145.851 54.96 144.731 55.08 142.491 55.08C140.278 55.08 139.171 54.8933 139.171 54.52V27.12C139.171 26.9333 139.584 26.8 140.411 26.72C141.238 26.64 141.931 26.6 142.491 26.6C144.731 26.6 145.851 26.84 145.851 27.32V35.32C147.344 34.8667 148.478 34.64 149.251 34.64C151.278 34.64 152.878 35.1867 154.051 36.28C155.224 37.3467 155.811 39.3467 155.811 42.28V54.68C155.811 54.92 154.771 55.04 152.691 55.04C150.344 54.96 149.171 54.8267 149.171 54.64V42.88C149.171 41.5733 148.744 40.92 147.891 40.92C147.304 40.92 146.624 41.2 145.851 41.76V54.72Z" fill="#275164"/>
</svg>
