<svg width="1384" height="552" viewBox="0 0 1384 552" fill="none" xmlns="http://www.w3.org/2000/svg">
<path d="M2.73279 230.639C12.4053 131.071 97.1759 57.7878 196.01 42.3262C562.901 -15.0703 821.104 -14.1589 1192.03 45.4665C1280.17 59.6349 1358.73 119.391 1375.9 206.998C1386.21 259.638 1386.72 307.39 1377.2 358.509C1360.82 446.444 1279.74 504.316 1191.1 516.248C832.228 564.552 574.438 562.917 200.681 517.342C99.4654 505 10.1016 432.74 1.84966 331.109C-0.928681 296.891 -0.531051 264.236 2.73279 230.639Z" fill="#1F95B1"/>
<path d="M155.202 303C158.369 305.5 163.785 308.917 171.452 313.25C179.285 317.583 186.702 319.75 193.702 319.75C200.869 319.75 204.452 317 204.452 311.5C204.452 309 203.452 306.833 201.452 305C199.452 303 195.785 300.75 190.452 298.25C185.119 295.75 181.119 293.833 178.452 292.5C175.785 291 172.202 288.667 167.702 285.5C163.369 282.167 160.035 278.75 157.702 275.25C151.035 265.75 147.702 253.667 147.702 239C147.702 224.333 153.119 212 163.952 202C174.952 191.833 189.285 186.75 206.952 186.75C218.952 186.75 230.035 188.083 240.202 190.75C250.369 193.25 255.619 196.583 255.952 200.75C255.952 201.25 255.952 201.75 255.952 202.25C255.952 208.083 254.119 215.5 250.452 224.5C246.785 233.333 244.202 238.25 242.702 239.25C232.035 233.75 222.452 231 213.952 231C205.619 231 201.452 234 201.452 240C201.452 243.667 204.535 246.917 210.702 249.75C212.035 250.417 213.952 251.333 216.452 252.5C218.952 253.667 221.785 255.083 224.952 256.75C228.285 258.25 231.785 260.25 235.452 262.75C239.285 265.083 243.369 268.25 247.702 272.25C256.535 280.583 260.952 291.583 260.952 305.25C260.952 323.083 256.035 337.667 246.202 349C236.369 360.333 221.202 366.167 200.702 366.5C190.702 366.5 181.619 365.667 173.452 364C165.452 362.333 158.452 359.083 152.452 354.25C146.452 349.417 143.452 343.583 143.452 336.75C143.452 329.917 144.702 323.167 147.202 316.5C149.702 309.667 152.369 305.167 155.202 303ZM331.515 360.5C331.515 363 323.681 364.25 308.015 364.25L294.015 363.5C285.681 362.833 281.515 361.667 281.515 360V192.25C281.515 189.417 289.848 188 306.515 188C323.181 188 331.515 189.417 331.515 192.25V256.25L362.015 192.25C363.181 189.917 369.848 188.75 382.015 188.75C404.181 188.75 415.848 190.667 417.015 194.5C417.015 194.833 416.931 195.167 416.765 195.5L373.265 274L423.765 343.75C423.765 344.083 422.181 345.5 419.015 348C411.348 354.667 402.348 359.917 392.015 363.75C388.848 364.917 385.681 365.5 382.515 365.5L376.515 365C371.181 363.667 367.015 360.25 364.015 354.75L335.515 300.25H331.515V360.5ZM443.044 234.5C440.211 234.5 438.211 230.667 437.044 223C436.544 219.833 436.294 216.333 436.294 212.5C436.294 208.667 436.711 204.667 437.544 200.5C439.044 192.833 441.544 189 445.044 189H537.544C547.711 189 554.294 198.25 557.294 216.75C557.961 220.75 558.294 223.667 558.294 225.5L499.794 314.25H545.544C545.711 314.25 545.877 314.25 546.044 314.25C549.711 314.25 552.294 318.25 553.794 326.25C554.461 330.083 554.794 334.083 554.794 338.25C554.794 342.417 554.294 346.833 553.294 351.5C551.461 359.833 548.627 364 544.794 364H447.544C446.044 364 443.294 359 439.294 349C435.461 338.833 433.544 332.5 433.544 330C433.544 327.5 433.794 325.917 434.294 325.25L492.794 234.5H443.044ZM651.663 366.5C628.33 366.5 609.246 358.833 594.413 343.5C579.746 328.167 572.413 305.833 572.413 276.5C572.413 247 579.83 224.667 594.663 209.5C609.663 194.333 628.913 186.75 652.413 186.75C676.08 186.75 695.163 194.25 709.663 209.25C724.163 224.083 731.413 246.667 731.413 277C731.413 307.167 723.996 329.667 709.163 344.5C694.33 359.167 675.163 366.5 651.663 366.5ZM651.913 234.75C643.913 234.75 637.163 238.417 631.663 245.75C626.33 253.083 623.663 263.417 623.663 276.75C623.663 289.917 626.246 300.083 631.413 307.25C636.58 314.25 643.33 317.75 651.663 317.75C660.163 317.75 666.996 314.167 672.163 307C677.496 299.833 680.163 289.583 680.163 276.25C680.163 262.917 677.413 252.667 671.913 245.5C666.58 238.333 659.913 234.75 651.913 234.75ZM825.735 366.5C802.402 366.5 783.319 358.833 768.485 343.5C753.819 328.167 746.485 305.833 746.485 276.5C746.485 247 753.902 224.667 768.735 209.5C783.735 194.333 802.985 186.75 826.485 186.75C850.152 186.75 869.235 194.25 883.735 209.25C898.235 224.083 905.485 246.667 905.485 277C905.485 307.167 898.069 329.667 883.235 344.5C868.402 359.167 849.235 366.5 825.735 366.5ZM825.985 234.75C817.985 234.75 811.235 238.417 805.735 245.75C800.402 253.083 797.735 263.417 797.735 276.75C797.735 289.917 800.319 300.083 805.485 307.25C810.652 314.25 817.402 317.75 825.735 317.75C834.235 317.75 841.069 314.167 846.235 307C851.569 299.833 854.235 289.583 854.235 276.25C854.235 262.917 851.485 252.667 845.985 245.5C840.652 238.333 833.985 234.75 825.985 234.75ZM1037.56 362.75C1037.56 363.917 1030.39 364.5 1016.06 364.5C1001.89 364.5 994.808 363.75 994.808 362.25V289.5C994.808 281.167 992.058 277 986.558 277C983.724 277 979.974 278.833 975.308 282.5V362.5C975.308 364.167 968.141 365 953.808 365C939.641 365 932.558 364.083 932.558 362.25V280.5H926.308C920.808 280.5 918.058 274.75 918.058 263.25C918.058 258.083 919.058 252.833 921.058 247.5C923.724 240.167 928.058 236.5 934.058 236.5C940.058 236.5 945.808 238.083 951.308 241.25C956.974 244.417 960.391 247.417 961.558 250.25C971.891 241.083 983.308 236.5 995.808 236.5C1008.47 236.5 1018.64 240.417 1026.31 248.25C1035.31 240.417 1046.14 236.5 1058.81 236.5C1086.31 236.5 1100.06 253.25 1100.06 286.75V362.75C1100.06 363.917 1092.89 364.5 1078.56 364.5C1064.39 364.5 1057.31 363.75 1057.31 362.25V289.5C1057.31 281.167 1054.56 277 1049.06 277C1046.06 277 1042.22 278.833 1037.56 282.5V362.75ZM1167.08 362.5C1167.08 363.833 1159.41 364.5 1144.08 364.5C1128.91 364.5 1121.33 363.917 1121.33 362.75V240C1121.33 238.833 1128.91 238.25 1144.08 238.25C1159.41 238.25 1167.08 238.75 1167.08 239.75V362.5ZM1167.08 225C1167.08 226.167 1159.41 226.75 1144.08 226.75C1128.91 226.75 1121.33 226.25 1121.33 225.25V189.25C1121.33 187.583 1128.91 186.75 1144.08 186.75C1159.41 186.75 1167.08 187.25 1167.08 188.25V225ZM1235.44 362.5C1235.44 363.833 1227.77 364.5 1212.44 364.5C1197.27 364.5 1189.69 363.917 1189.69 362.75V240C1189.69 238.833 1197.27 238.25 1212.44 238.25C1227.77 238.25 1235.44 238.75 1235.44 239.75V362.5ZM1235.44 225C1235.44 226.167 1227.77 226.75 1212.44 226.75C1197.27 226.75 1189.69 226.25 1189.69 225.25V189.25C1189.69 187.583 1197.27 186.75 1212.44 186.75C1227.77 186.75 1235.44 187.25 1235.44 188.25V225Z" fill="#C8EBED"/>
</svg>
