<svg width="510" height="161" viewBox="0 0 510 161" fill="none" xmlns="http://www.w3.org/2000/svg">
<path d="M0 80.6318C0 40.9414 30.7799 7.97296 70.4087 5.76411C205.899 -1.78793 304.174 -2.0174 439.681 5.65744C479.285 7.90055 510 40.8805 510 80.5482C510 120.319 479.114 153.341 439.401 155.486C300.793 162.971 202.684 162.698 70.5032 155.502C30.8373 153.343 0 120.356 0 80.6318Z" fill="#1F95B1"/>
<path d="M153.067 90.6C154.333 91.6 156.5 92.9667 159.567 94.7C162.7 96.4333 165.667 97.3 168.467 97.3C171.333 97.3 172.767 96.2 172.767 94C172.767 93 172.367 92.1333 171.567 91.4C170.767 90.6 169.3 89.7 167.167 88.7C165.033 87.7 163.433 86.9333 162.367 86.4C161.3 85.8 159.867 84.8667 158.067 83.6C156.333 82.2667 155 80.9 154.067 79.5C151.4 75.7 150.067 70.8667 150.067 65C150.067 59.1333 152.233 54.2 156.567 50.2C160.967 46.1333 166.7 44.1 173.767 44.1C178.567 44.1 183 44.6333 187.067 45.7C191.133 46.7 193.233 48.0333 193.367 49.7C193.367 49.9 193.367 50.1 193.367 50.3C193.367 52.6333 192.633 55.6 191.167 59.2C189.7 62.7333 188.667 64.7 188.067 65.1C183.8 62.9 179.967 61.8 176.567 61.8C173.233 61.8 171.567 63 171.567 65.4C171.567 66.8667 172.8 68.1667 175.267 69.3C175.8 69.5667 176.567 69.9333 177.567 70.4C178.567 70.8667 179.7 71.4333 180.967 72.1C182.3 72.7 183.7 73.5 185.167 74.5C186.7 75.4333 188.333 76.7 190.067 78.3C193.6 81.6333 195.367 86.0333 195.367 91.5C195.367 98.6333 193.4 104.467 189.467 109C185.533 113.533 179.467 115.867 171.267 116C167.267 116 163.633 115.667 160.367 115C157.167 114.333 154.367 113.033 151.967 111.1C149.567 109.167 148.367 106.833 148.367 104.1C148.367 101.367 148.867 98.6667 149.867 96C150.867 93.2667 151.933 91.4667 153.067 90.6ZM226.092 114.4C226.092 115.2 223.292 115.6 217.692 115.6C211.025 115.333 207.692 114.9 207.692 114.3V78.9H202.592C201.258 78.9 200.592 76.6 200.592 72C200.592 70.8 200.692 69.3333 200.892 67.6C201.158 65.8667 201.658 65 202.392 65H207.692V56.2C207.692 54.8667 210.492 54.2 216.092 54.2C221.758 54.2 224.592 54.7333 224.592 55.8V62.2L224.692 65H233.192C234.325 65 234.892 67.3333 234.892 72C234.892 76.6667 234.325 79 233.192 79H226.092V114.4ZM246.208 78.7C244.342 75.3667 243.408 72.6667 243.408 70.6C243.408 68.4667 243.975 67.1 245.108 66.5C248.908 64.8333 254.108 64 260.708 64C267.375 64 272.075 65.5667 274.808 68.7C277.542 71.7667 278.908 76.3333 278.908 82.4V98.2H282.308C283.442 98.2 284.308 98.8667 284.908 100.2C285.575 101.533 285.908 103.367 285.908 105.7C285.908 108.033 285.308 110.333 284.108 112.6C282.975 114.867 281.408 116 279.408 116C275.808 116 272.908 115.033 270.708 113.1C269.708 112.3 268.942 111.333 268.408 110.2C265.342 114.067 260.575 116 254.108 116C249.242 116 245.142 114.267 241.808 110.8C238.475 107.333 236.808 103.233 236.808 98.5C236.808 87.6333 243.308 82.2 256.308 82.2H261.808V81.2C261.808 79.4667 261.508 78.3667 260.908 77.9C260.375 77.3667 259.075 77.1 257.008 77.1C254.475 77.1 250.875 77.6333 246.208 78.7ZM254.208 97.1C254.208 98.5667 254.608 99.7 255.408 100.5C256.208 101.233 257.208 101.6 258.408 101.6C259.675 101.6 260.808 101.1 261.808 100.1V92.4H259.008C255.808 92.4 254.208 93.9667 254.208 97.1ZM313.468 114.9C313.468 115.367 310.435 115.6 304.368 115.6C298.302 115.467 295.268 115.2 295.268 114.8V81.6H292.568C291.502 81.6 290.635 80.9667 289.968 79.7C289.368 78.3667 289.068 76.7333 289.068 74.8C289.068 67.6 291.202 64 295.468 64C298.468 64 300.968 64.9333 302.968 66.8C304.968 68.6 305.968 70.6667 305.968 73C307.368 70.2667 309.235 68.1 311.568 66.5C313.968 64.8333 316.402 64 318.868 64C322.735 64 325.068 65 325.868 67C326.068 67.5333 326.168 68.3333 326.168 69.4C326.168 70.4 325.835 72.2333 325.168 74.9C324.568 77.5667 323.935 79.5 323.268 80.7C322.602 81.9 322.202 82.5 322.068 82.5C321.935 82.5 321.302 82.2667 320.168 81.8C319.102 81.2667 318.135 81 317.268 81C314.735 81 313.468 83 313.468 87V114.9ZM354.217 114.4C354.217 115.2 351.417 115.6 345.817 115.6C339.15 115.333 335.817 114.9 335.817 114.3V78.9H330.717C329.383 78.9 328.717 76.6 328.717 72C328.717 70.8 328.817 69.3333 329.017 67.6C329.283 65.8667 329.783 65 330.517 65H335.817V56.2C335.817 54.8667 338.617 54.2 344.217 54.2C349.883 54.2 352.717 54.7333 352.717 55.8V62.2L352.817 65H361.317C362.45 65 363.017 67.3333 363.017 72C363.017 76.6667 362.45 79 361.317 79H354.217V114.4Z" fill="#C8EBED"/>
</svg>
